<?xml version="1.0" standalone="no"?>
<!DOCTYPE svg PUBLIC "-//W3C//DTD SVG 20010904//EN"
 "http://www.w3.org/TR/2001/REC-SVG-20010904/DTD/svg10.dtd">
<svg version="1.0" xmlns="http://www.w3.org/2000/svg"
 width="1154.000000pt" height="1156.000000pt" viewBox="0 0 1154.000000 1156.000000"
 preserveAspectRatio="xMidYMid meet">
<metadata>
Created by potrace 1.16, written by Peter Selinger 2001-2019
</metadata>
<g transform="translate(0.000000,1156.000000) scale(0.100000,-0.100000)"
fill="#000000" stroke="none">
<path d="M6061 10571 c-7 -5 -51 -6 -97 -3 l-84 5 0 -27 c0 -16 5 -26 15 -26
8 0 15 -4 15 -9 0 -8 56 -7 122 3 32 5 39 2 49 -17 27 -53 79 -88 79 -53 0 7
9 20 20 27 10 8 22 26 25 40 6 25 4 27 -38 33 -25 4 -48 13 -51 21 -6 17 -34
19 -55 6z"/>
<path d="M5167 10546 c-30 -28 -34 -38 -12 -30 17 7 18 3 9 -20 -3 -9 -14 -16
-24 -16 -9 0 -29 -11 -44 -25 -21 -19 -34 -24 -57 -20 -16 3 -40 0 -52 -7 -32
-18 -107 -37 -147 -38 -29 0 -37 -5 -49 -31 -7 -17 -25 -36 -40 -42 -14 -6
-30 -17 -34 -24 -4 -7 -14 -13 -22 -13 -7 0 -27 -11 -43 -24 -23 -20 -28 -31
-24 -57 4 -24 0 -34 -14 -42 -26 -15 -46 -15 -66 2 -20 17 -15 29 15 40 17 7
22 16 21 42 0 19 -7 44 -14 55 -11 18 -17 20 -42 10 -15 -6 -28 -14 -28 -18 0
-9 -67 -28 -101 -28 -15 0 -30 -7 -33 -16 -9 -24 -7 -36 5 -29 5 4 21 4 34 1
22 -6 24 -10 19 -45 -5 -35 -3 -40 18 -47 13 -4 35 -7 51 -6 18 2 27 -3 27
-12 0 -13 -16 -30 -30 -31 -24 -3 -50 -19 -50 -30 0 -8 8 -30 17 -50 16 -34
18 -35 79 -35 34 0 79 6 101 14 52 18 213 10 213 -10 0 -8 1 -17 3 -21 4 -13
-59 -25 -127 -23 -42 0 -72 -4 -76 -10 -11 -18 -124 -25 -160 -10 -16 7 -31
15 -31 19 -1 3 -3 16 -4 28 -3 34 -21 50 -72 62 -37 10 -48 9 -54 -1 -5 -7 -9
-8 -9 -2 0 17 -80 38 -93 25 -16 -16 0 -25 44 -24 32 2 42 -3 56 -23 17 -26
67 -58 93 -58 9 -1 16 -12 18 -28 4 -32 38 -56 87 -62 71 -9 88 -46 21 -46
-26 0 -48 -6 -56 -15 -13 -16 -67 -20 -86 -7 -6 4 -13 15 -17 25 -9 23 -75 27
-88 5 -4 -6 -15 -8 -24 -4 -13 5 -15 12 -10 34 4 15 7 35 7 45 0 9 3 17 8 17
4 0 11 7 14 15 8 22 -33 36 -59 20 -11 -7 -37 -16 -58 -19 -48 -9 -57 -31 -26
-62 13 -13 35 -35 48 -48 31 -32 22 -52 -28 -61 -46 -8 -154 17 -177 40 -10 9
-34 15 -64 15 -27 0 -56 3 -66 7 -12 4 -15 3 -10 -5 9 -15 -43 -64 -61 -58 -7
3 -19 -3 -25 -14 -9 -13 -24 -20 -45 -20 -23 0 -33 -5 -33 -15 0 -8 -16 -21
-35 -29 -19 -8 -46 -27 -60 -42 -19 -20 -31 -25 -54 -22 -23 3 -32 -1 -42 -19
-10 -18 -10 -26 -2 -31 6 -4 15 -20 18 -35 6 -24 4 -27 -19 -27 -18 0 -24 -4
-20 -15 3 -8 -1 -21 -9 -29 -12 -13 -19 -9 -55 30 -45 50 -45 67 -1 90 16 8
29 22 29 32 0 9 9 23 20 30 11 7 20 23 20 37 0 18 -5 25 -20 25 -13 0 -20 -7
-20 -18 0 -26 -20 -42 -51 -42 -37 0 -74 -15 -99 -40 -11 -11 -27 -20 -35 -20
-8 0 -21 -16 -29 -35 -15 -35 -20 -39 -67 -49 -31 -7 -53 -47 -54 -96 0 -34
-1 -35 -45 -40 -40 -5 -45 -8 -51 -37 -3 -17 -14 -39 -23 -48 -9 -9 -16 -29
-16 -45 0 -33 -36 -106 -68 -138 -13 -13 -22 -35 -22 -52 0 -17 -11 -48 -24
-69 -23 -36 -24 -44 -20 -168 5 -127 4 -132 -21 -168 -49 -74 -28 -242 40
-315 27 -29 65 -110 65 -139 0 -28 29 -34 121 -26 68 6 83 5 99 -10 10 -9 33
-21 52 -25 18 -5 53 -14 78 -21 l45 -11 -2 -282 c-1 -255 -3 -287 -22 -332
-13 -34 -20 -74 -19 -120 0 -109 2 -104 -35 -104 -18 0 -42 -6 -53 -14 -11 -8
-33 -16 -49 -18 -28 -3 -30 -6 -30 -42 0 -38 -1 -39 -45 -50 -41 -10 -45 -14
-48 -43 -3 -28 1 -35 30 -49 52 -25 69 -57 78 -142 5 -42 13 -102 19 -132 6
-30 16 -80 22 -110 22 -119 43 -200 51 -200 4 0 8 -8 8 -17 0 -10 8 -31 18
-48 10 -16 26 -50 36 -75 16 -43 58 -82 126 -118 53 -29 259 -91 340 -103 47
-7 93 -16 103 -22 18 -8 18 -9 -2 -23 -27 -19 -27 -44 -1 -51 18 -5 24 -15 21
-36 -1 -4 12 -10 29 -13 34 -7 57 -29 40 -39 -5 -3 -10 0 -10 7 0 7 -7 0 -15
-16 -8 -15 -15 -34 -15 -42 0 -7 -6 -17 -14 -21 -8 -4 -16 -14 -18 -22 -6 -29
-51 -71 -75 -71 -13 0 -35 -11 -48 -24 -13 -13 -27 -21 -30 -18 -3 4 -3 -1 1
-11 4 -12 1 -17 -10 -17 -9 0 -16 -6 -16 -12 -1 -7 -15 -22 -32 -33 -18 -11
-35 -31 -39 -45 -4 -14 -7 -19 -8 -12 -1 7 -9 4 -22 -9 -11 -11 -19 -25 -16
-31 2 -7 -4 -19 -14 -29 -14 -14 -16 -31 -13 -85 2 -38 5 -78 7 -89 6 -34 35
-81 61 -99 17 -11 23 -21 19 -33 -5 -12 -2 -15 10 -10 11 4 18 -1 22 -14 5
-14 12 -18 25 -14 13 4 17 1 16 -12 0 -9 10 -23 24 -30 22 -11 23 -13 5 -14
-17 0 -17 -2 5 -12 35 -15 34 -15 20 -32 -10 -12 -10 -19 -2 -27 17 -17 15
-67 -3 -84 -8 -9 -15 -24 -15 -34 0 -11 -6 -23 -13 -27 -8 -4 -19 -29 -27 -55
-12 -47 -14 -48 -51 -48 -32 0 -39 -4 -39 -19 0 -11 -4 -22 -8 -25 -10 -6 -9
-36 2 -55 5 -7 4 -17 -2 -23 -10 -10 0 -73 21 -120 12 -29 67 -46 67 -21 0 18
16 17 24 -2 6 -17 54 -20 76 -4 12 8 9 9 -12 5 -15 -3 -30 -2 -33 4 -3 5 1 10
9 10 9 0 16 4 16 10 0 5 -4 9 -9 7 -5 -1 -9 1 -10 6 -4 27 1 37 19 37 22 0 27
15 9 26 -8 4 -7 9 2 14 9 6 9 12 -4 25 -10 9 -17 22 -17 28 0 7 4 6 9 -2 8
-12 19 -13 58 -5 39 7 47 13 45 27 -2 11 4 27 13 37 23 25 29 129 8 137 -12 5
-11 9 5 27 11 11 27 36 38 54 10 17 24 32 30 32 7 0 15 9 19 20 6 18 26 25 90
32 11 1 43 -2 72 -6 52 -8 53 -7 90 32 33 35 45 41 98 47 33 4 78 11 101 16
25 5 65 4 100 -2 32 -5 122 -12 199 -14 278 -10 367 -15 383 -24 9 -5 46 -11
82 -14 36 -3 81 -14 100 -24 61 -32 62 -33 46 -49 -11 -10 -13 -21 -7 -37 8
-21 14 -22 106 -22 53 0 99 3 101 8 7 11 52 9 75 -4 15 -7 24 -7 35 2 10 9 21
9 41 0 16 -6 42 -12 58 -14 45 -4 95 -34 95 -57 0 -11 4 -20 9 -20 5 0 11 -9
14 -20 3 -13 14 -20 28 -20 12 0 31 -7 41 -17 17 -15 18 -15 18 3 0 11 15 36
33 55 53 56 67 81 61 106 -4 16 -2 23 8 23 32 0 59 111 62 246 0 46 6 85 11
87 6 2 -3 2 -20 1 -16 -2 -24 -1 -17 2 11 5 10 10 -3 24 -15 16 -14 17 12 13
24 -4 25 -3 10 7 -9 6 -14 16 -11 22 5 7 2 9 -8 5 -10 -3 -15 0 -14 11 0 9 -5
17 -13 17 -8 0 -16 6 -19 13 -2 7 2 10 12 6 9 -3 16 -1 16 5 0 6 -7 11 -15 11
-15 0 -39 35 -40 60 0 8 -6 14 -12 13 -7 -2 -13 4 -13 12 0 8 -11 22 -24 31
-14 8 -28 29 -31 45 -4 16 -10 29 -14 29 -3 0 -15 17 -26 38 -11 20 -35 56
-52 80 -18 24 -33 51 -33 61 0 9 -5 22 -10 27 -8 8 -5 17 7 32 14 17 32 23 83
27 36 3 83 7 104 9 21 2 46 0 56 -6 20 -13 132 39 164 77 12 14 27 25 34 25 7
0 43 16 81 34 79 40 169 132 207 211 39 81 71 134 78 128 3 -4 6 8 6 24 0 44
61 107 96 99 15 -4 24 -2 24 6 0 9 3 9 12 0 21 -21 30 -13 25 22 -3 26 0 36
11 41 13 5 14 8 3 14 -18 12 13 23 43 15 13 -3 27 1 34 9 14 17 59 11 84 -10
18 -16 38 -10 38 12 0 14 37 31 47 21 4 -3 1 -6 -6 -6 -9 0 -9 -3 1 -13 10
-11 17 -11 40 0 15 8 32 12 38 8 5 -3 10 -2 10 3 0 15 72 25 80 12 6 -9 9 -9
12 1 4 11 8 12 20 1 11 -9 23 -10 42 -2 21 8 26 7 26 -5 0 -9 10 -15 25 -15
14 0 25 -6 25 -12 0 -9 3 -9 9 1 8 12 12 11 27 -3 12 -12 26 -16 45 -12 25 5
28 2 34 -27 4 -18 9 -40 11 -49 4 -13 1 -16 -11 -12 -9 4 -14 12 -11 20 3 7
-2 18 -10 24 -11 10 -14 9 -14 -4 0 -9 -5 -16 -12 -16 -6 0 -8 -3 -5 -7 4 -3
2 -12 -4 -19 -9 -11 -1 -16 35 -26 43 -11 45 -13 29 -30 -18 -20 -20 -87 -2
-119 6 -11 8 -27 5 -35 -3 -8 1 -14 9 -14 20 0 19 -36 0 -44 -8 -3 -15 -15
-15 -27 0 -18 -2 -19 -15 -9 -8 7 -15 19 -15 27 0 8 -4 11 -10 8 -16 -10 -12
11 5 25 17 14 11 30 -12 30 -9 0 -13 -6 -10 -14 3 -8 -2 -16 -13 -19 -13 -3
-16 -11 -12 -32 5 -26 3 -27 -22 -21 -24 6 -26 5 -14 -8 7 -7 16 -12 21 -9 4
2 7 -2 7 -10 0 -10 -7 -13 -20 -10 -23 6 -28 -15 -5 -23 8 -4 14 -16 14 -28
-1 -16 -2 -17 -6 -3 -5 17 -23 24 -23 8 0 -4 -11 -20 -25 -35 -14 -15 -25 -35
-25 -44 0 -14 -49 -48 -55 -39 -1 1 0 19 3 40 3 26 8 37 17 33 13 -5 25 14 25
38 0 9 -9 12 -26 8 -16 -3 -24 -1 -21 4 3 6 -3 10 -14 10 -18 0 -20 -5 -14
-33 5 -28 3 -32 -14 -28 -11 2 -29 8 -39 14 -25 13 -39 -2 -48 -50 -4 -19 -11
-40 -17 -47 -14 -18 0 -27 18 -12 9 7 16 11 18 9 26 -45 26 -47 9 -54 -15 -6
-15 -8 3 -15 16 -7 17 -9 3 -9 -9 -1 -20 4 -23 9 -3 6 -15 10 -26 10 -19 0
-19 -1 -5 -16 9 -8 16 -20 16 -26 0 -6 8 -7 18 -3 14 5 15 4 5 -6 -15 -15 -18
-33 -4 -25 4 3 1 -10 -8 -29 -9 -19 -22 -34 -28 -35 -15 0 -17 -16 -4 -24 5
-3 11 -15 14 -26 4 -18 2 -20 -16 -14 -20 6 -21 6 -4 -19 20 -30 22 -46 5 -29
-18 18 -28 14 -28 -10 0 -17 -3 -19 -9 -9 -5 8 -11 9 -15 3 -10 -16 20 -33 48
-26 19 5 26 2 26 -9 0 -8 6 -17 12 -19 10 -4 8 -15 -7 -43 -15 -29 -17 -39 -7
-42 10 -4 10 -10 -3 -29 -9 -14 -13 -30 -9 -36 4 -6 1 -9 -7 -6 -8 3 -14 14
-13 26 0 11 -5 18 -12 15 -14 -5 -26 21 -18 42 4 8 11 15 18 16 10 0 -50 27
-66 28 -5 1 -8 -8 -8 -19 0 -11 7 -20 15 -20 10 0 14 -9 13 -25 -3 -27 -15
-33 -24 -11 -8 20 -31 10 -37 -15 -4 -15 -2 -19 9 -15 8 3 14 2 14 -3 0 -16
-13 -20 -36 -11 -18 7 -26 5 -33 -8 -6 -9 -11 -13 -11 -9 0 4 -8 3 -19 -2 -21
-11 -18 -53 4 -71 10 -8 12 -27 8 -65 -6 -52 -5 -54 17 -48 19 5 22 3 17 -11
-4 -10 -7 -20 -7 -22 0 -2 -7 -4 -15 -4 -8 0 -15 -5 -15 -11 0 -23 45 -3 59
26 8 16 16 24 18 18 3 -7 10 -10 18 -7 10 4 10 12 1 35 -10 28 -11 29 -16 8
l-5 -22 -25 26 c-24 25 -35 77 -17 77 5 0 17 10 28 23 l18 22 1 -22 c0 -16 6
-23 19 -23 11 0 23 -5 27 -11 5 -8 -1 -10 -20 -7 -34 7 -35 -15 -1 -30 14 -6
25 -18 25 -27 0 -20 20 -20 21 0 3 28 4 33 12 41 4 4 7 -9 7 -29 0 -21 -5 -37
-11 -37 -5 0 -7 -4 -4 -10 3 -5 14 -10 23 -10 10 0 22 -8 29 -18 16 -27 -12
-82 -42 -82 -14 0 -25 -7 -28 -20 -3 -14 0 -20 11 -20 8 0 13 -3 9 -6 -10 -10
18 -32 54 -42 30 -9 31 -10 8 -11 -30 -1 -33 -29 -5 -60 11 -12 14 -21 7 -26
-6 -3 -11 -11 -11 -16 0 -6 5 -7 12 -3 8 5 9 2 5 -11 -4 -9 -4 -23 1 -29 5 -6
3 -21 -4 -36 l-14 -25 0 28 c0 22 -4 27 -24 27 -16 0 -27 7 -31 20 -12 37 -35
15 -35 -34 0 -12 -7 -32 -16 -44 -8 -12 -13 -26 -9 -32 6 -10 -24 -50 -37 -50
-14 0 -8 31 7 36 8 4 15 16 15 29 0 21 -2 22 -25 12 -17 -8 -24 -19 -23 -32 2
-16 -2 -19 -19 -17 -28 4 -30 -14 -3 -28 11 -6 20 -17 20 -24 0 -8 7 -17 16
-20 22 -8 26 -8 19 4 -3 6 -2 10 3 10 5 0 12 8 14 18 3 10 15 18 26 19 27 2
29 -13 4 -19 -10 -3 -26 -22 -36 -42 -9 -20 -21 -36 -25 -36 -5 0 -14 -14 -20
-31 -7 -21 -15 -29 -26 -26 -8 4 -17 2 -20 -3 -4 -6 -17 -10 -30 -10 -29 0
-36 -10 -28 -38 6 -24 33 -30 33 -8 0 7 9 16 21 19 18 5 20 2 16 -19 -2 -13 0
-24 4 -24 5 0 9 9 9 20 0 14 5 18 16 13 13 -5 13 -7 2 -14 -11 -7 -10 -14 3
-38 12 -21 14 -32 6 -40 -19 -19 2 -12 33 11 17 12 30 30 30 40 0 10 7 18 15
18 16 0 13 -35 -7 -72 -6 -13 -5 -18 4 -18 9 0 9 -3 0 -12 -9 -9 -15 -9 -24 0
-7 7 -19 12 -27 11 -12 0 -10 -3 4 -9 19 -9 19 -9 -3 -16 -14 -4 -21 -12 -18
-20 3 -8 -1 -14 -9 -14 -8 0 -15 -6 -15 -13 0 -8 -7 -28 -16 -45 -8 -18 -13
-40 -9 -51 5 -18 3 -18 -35 -9 -32 8 -38 13 -29 24 6 7 8 17 5 23 -10 15 -41
2 -51 -22 -8 -18 -18 -22 -55 -22 -38 0 -45 3 -46 20 -1 11 -5 28 -9 38 -9 21
-37 23 -29 2 4 -8 2 -15 -4 -15 -6 0 -13 6 -15 13 -3 6 -6 -1 -6 -16 -1 -15
-7 -30 -15 -33 -8 -3 -12 -12 -9 -20 7 -20 -17 -17 -33 4 -12 15 -13 15 -14
-10 0 -17 -7 -29 -19 -33 -11 -3 -23 -15 -26 -25 -3 -11 -12 -17 -20 -14 -22
9 -27 -15 -5 -28 11 -7 20 -18 20 -25 0 -7 5 -13 10 -13 6 0 10 5 10 10 0 6 7
10 16 10 14 0 14 -3 4 -15 -8 -9 -30 -15 -56 -15 -24 0 -44 -4 -44 -9 0 -5 -9
-7 -20 -4 -12 3 -18 8 -16 11 8 7 -34 42 -50 42 -7 0 -16 -9 -19 -20 -7 -21
-30 -27 -40 -10 -3 5 3 18 13 28 19 19 19 19 -4 19 -13 1 -24 -5 -24 -13 0 -7
-15 -17 -32 -22 -26 -6 -33 -14 -33 -32 0 -19 -8 -27 -33 -34 -30 -8 -32 -12
-32 -54 0 -38 -2 -43 -12 -30 -17 21 -48 30 -49 15 0 -7 -2 -20 -4 -30 -2 -9
1 -15 5 -12 5 3 11 1 15 -5 3 -6 -4 -10 -18 -10 -15 0 -26 -7 -29 -18 -4 -14
-13 -17 -40 -14 -20 2 -45 -1 -57 -7 -14 -8 -21 -8 -21 -1 0 5 6 10 13 10 8 0
7 4 -3 10 -20 13 -33 13 -25 0 3 -5 -1 -10 -9 -10 -9 0 -16 -4 -16 -10 0 -5
-9 -10 -20 -10 -14 0 -19 -6 -17 -22 1 -15 -4 -23 -18 -26 -16 -4 -17 -2 -7
10 14 17 -2 38 -29 38 -10 0 -21 5 -24 10 -3 6 -14 10 -23 9 -14 0 -13 -2 3
-9 16 -7 17 -9 3 -9 -9 -1 -24 2 -33 5 -14 6 -13 8 5 21 12 9 20 25 19 41 l-1
27 -12 -28 c-11 -24 -14 -26 -31 -14 -10 8 -15 19 -11 25 5 8 2 10 -8 6 -27
-10 -18 25 9 38 14 6 25 17 25 25 0 7 7 13 15 13 8 0 15 -5 15 -11 0 -6 6 -9
14 -6 8 3 17 -1 20 -10 4 -10 15 -14 36 -11 19 3 31 0 35 -9 2 -8 10 -11 15
-8 6 4 17 2 24 -5 18 -14 66 -2 66 16 0 8 6 14 13 15 6 0 -4 5 -23 12 -30 10
-35 17 -35 42 0 19 5 29 13 28 14 -3 16 13 2 22 -5 3 -10 16 -10 28 -1 22 -1
22 -15 3 -16 -22 -20 -9 -9 32 7 25 24 30 24 7 0 -21 29 -8 63 27 32 34 36 68
8 68 -10 0 -22 -7 -25 -16 -4 -9 -9 -14 -13 -11 -3 4 0 13 7 22 11 13 9 15
-13 15 -37 0 -57 -10 -57 -29 0 -9 -10 -22 -22 -30 -19 -12 -20 -14 -5 -23 19
-10 23 -43 6 -53 -17 -11 -23 3 -9 20 19 23 4 18 -24 -9 -15 -13 -26 -31 -26
-40 0 -9 -4 -16 -10 -16 -5 0 -10 5 -10 11 0 8 -5 7 -16 -2 -11 -9 -14 -23
-11 -47 5 -30 4 -32 -16 -26 -30 9 -34 14 -18 23 9 6 10 11 2 15 -6 4 -11 3
-11 -2 0 -5 -10 -13 -22 -16 -21 -6 -22 -7 -5 -17 24 -14 11 -32 -14 -19 -11
6 -17 15 -14 21 11 17 -5 9 -28 -14 l-22 -22 -3 22 c-4 29 -26 20 -53 -23 -12
-20 -29 -34 -40 -34 -10 0 -28 -9 -39 -20 -11 -11 -25 -20 -30 -20 -6 0 -9 -6
-8 -12 2 -7 -4 -13 -12 -13 -8 0 -14 5 -13 12 2 6 -9 21 -22 31 -18 15 -25 29
-25 56 0 42 -15 47 -32 11 -6 -14 -17 -25 -25 -25 -7 0 -13 -6 -13 -12 -1 -7
-10 5 -22 26 -19 38 -21 39 -35 20 -7 -10 -11 -29 -8 -42 4 -16 1 -22 -10 -22
-9 0 -20 -11 -25 -25 -12 -30 -35 -42 -54 -26 -13 11 -12 29 9 98 6 19 4 21
-23 19 -45 -3 -60 -24 -55 -79 3 -29 0 -47 -6 -47 -6 0 -11 8 -11 18 0 14 -2
15 -10 2 -8 -13 -10 -12 -10 3 0 9 5 17 10 17 16 0 12 47 -5 54 -8 3 -15 16
-15 28 0 13 -8 28 -19 35 -15 10 -23 8 -40 -8 -18 -17 -27 -19 -49 -11 -15 6
-21 11 -14 11 6 1 12 9 12 19 0 10 5 23 12 30 9 9 8 12 -5 12 -9 0 -17 4 -17
9 0 10 -39 3 -56 -10 -6 -5 -19 0 -32 14 -17 18 -21 31 -16 56 4 20 11 30 20
27 7 -3 18 2 24 9 10 12 6 14 -22 12 -18 -1 -36 -5 -39 -10 -8 -11 -69 -27
-69 -17 0 19 -30 17 -63 -6 -41 -27 -57 -30 -57 -10 0 7 -9 16 -20 19 -15 4
-20 0 -20 -14 0 -24 -34 -43 -58 -31 -9 5 -23 7 -30 5 -7 -3 -18 -1 -25 5 -17
13 -73 -20 -69 -41 1 -9 -5 -31 -14 -49 l-16 -32 -13 30 c-13 31 -21 24 -27
-25 -2 -14 -15 -30 -33 -40 -16 -9 -41 -24 -54 -33 -25 -18 -51 -14 -51 7 0
10 -7 11 -30 5 -31 -9 -60 7 -60 34 0 6 -15 16 -32 21 -18 6 -34 17 -35 25 -8
64 -16 90 -27 90 -18 0 -52 -83 -37 -88 22 -7 72 -65 62 -71 -14 -9 24 -71 44
-71 14 0 20 -12 16 -34 -3 -13 20 -36 37 -36 8 0 25 -11 37 -24 13 -14 25 -22
28 -20 3 3 8 -9 12 -26 4 -17 14 -34 22 -37 8 -3 13 -14 10 -24 -3 -11 2 -23
11 -28 20 -11 24 -51 5 -51 -8 0 -11 5 -8 10 3 6 -3 10 -14 10 -10 0 -22 6
-24 13 -4 8 -6 8 -6 -3 -1 -17 -81 66 -81 85 0 7 -14 15 -30 19 -17 3 -33 14
-37 23 -3 10 -13 26 -21 35 -8 10 -12 27 -9 40 6 23 -21 68 -40 68 -5 0 -28
18 -52 40 -23 22 -47 39 -53 37 -6 -1 -13 5 -15 13 -4 12 -3 12 5 1 6 -8 12
-9 16 -3 7 12 -55 82 -73 82 -7 0 -10 8 -7 18 18 62 18 67 -14 85 -16 10 -30
22 -30 26 0 5 -11 11 -25 13 -17 4 -25 1 -25 -8 0 -8 -4 -14 -10 -14 -18 0
-10 -48 17 -100 14 -28 48 -74 75 -103 27 -29 55 -65 63 -82 12 -27 144 -161
235 -240 19 -17 44 -42 56 -57 11 -15 52 -53 89 -85 126 -107 223 -214 241
-265 6 -17 18 -37 28 -43 9 -7 16 -17 16 -24 0 -6 7 -11 15 -11 8 0 15 -9 15
-20 0 -11 7 -20 15 -20 8 0 15 -5 15 -11 0 -5 4 -8 8 -5 5 3 20 -6 35 -20 14
-13 33 -24 42 -24 8 0 15 -5 15 -11 0 -6 -9 -8 -20 -4 -24 8 -26 -11 -5 -39
15 -20 15 -20 16 0 1 10 5 -8 10 -41 5 -34 15 -63 23 -67 9 -5 13 -15 9 -24
-3 -8 3 -21 13 -29 14 -11 16 -17 7 -23 -9 -6 -7 -12 8 -26 11 -9 18 -23 15
-31 -2 -7 2 -16 10 -19 8 -3 14 -17 14 -31 0 -14 7 -28 15 -31 8 -4 15 -12 15
-19 0 -7 15 -28 33 -47 43 -42 55 -85 30 -104 -17 -13 -17 -13 0 -14 9 0 17
-4 17 -10 0 -5 6 -10 13 -10 24 0 37 -21 26 -42 -7 -13 -16 -17 -31 -12 -17 5
-20 3 -15 -10 5 -11 -4 -26 -26 -46 -21 -20 -27 -30 -17 -30 9 0 21 5 27 11 7
7 25 8 54 2 l43 -8 -27 -18 c-23 -15 -27 -15 -27 -2 0 9 -9 15 -25 15 -14 0
-25 -4 -25 -10 0 -5 6 -10 13 -10 8 0 7 -4 -3 -10 -16 -11 -12 -12 40 -14 22
-1 34 -6 32 -13 -1 -7 2 -13 8 -13 5 0 10 -7 10 -15 0 -18 21 -20 37 -4 6 6
17 9 25 6 9 -4 6 -8 -9 -12 -12 -4 -20 -12 -19 -18 2 -7 1 -9 -1 -4 -3 4 -23
7 -46 6 l-42 -1 35 -11 c19 -6 38 -15 41 -20 3 -5 10 -9 15 -10 5 -1 8 -5 6
-9 -1 -5 9 -8 23 -8 25 0 25 1 10 29 -17 34 -1 56 21 27 6 -9 23 -18 36 -20
13 -1 30 -6 37 -11 11 -6 12 -2 7 19 -4 16 -2 26 5 26 8 0 9 14 5 45 -7 44 -7
45 21 46 25 0 26 1 8 9 -18 8 -17 9 7 9 15 1 29 5 33 11 3 5 12 7 19 4 8 -3
16 3 19 15 3 13 -1 21 -12 24 -9 3 -2 5 16 6 17 0 35 6 38 11 4 6 10 8 15 5 5
-3 12 0 16 6 5 8 9 7 14 -2 7 -10 12 -10 23 -1 8 7 21 10 29 7 10 -4 17 1 20
13 5 18 38 27 38 11 0 -5 14 -6 30 -2 20 4 30 2 30 -7 0 -7 7 -10 15 -7 8 4
17 2 20 -3 3 -6 16 -5 32 1 15 5 32 8 40 5 7 -3 13 -2 13 2 0 4 11 8 25 8 35
2 35 -37 0 -56 -18 -9 -25 -22 -25 -42 0 -21 -6 -31 -24 -38 -35 -13 -42 -30
-19 -49 28 -22 35 -59 15 -70 -13 -7 -24 -3 -44 16 -31 30 -51 22 -63 -24 -5
-23 -9 -25 -44 -19 -31 5 -43 1 -63 -17 -14 -12 -28 -30 -31 -39 -4 -10 -13
-18 -22 -18 -8 0 -15 -4 -15 -10 0 -5 7 -10 15 -10 19 0 19 -15 -1 -38 -10
-12 -24 -17 -40 -14 -23 4 -24 6 -9 28 23 36 0 39 -48 7 -42 -27 -47 -33 -47
-52 0 -5 -10 -11 -22 -14 -18 -5 -19 -8 -8 -22 19 -23 -4 -37 -48 -30 -35 6
-69 -9 -104 -46 -21 -21 -23 -40 -6 -57 18 -18 -6 -32 -55 -32 -28 0 -44 -7
-63 -27 -22 -24 -37 -30 -85 -32 -8 -1 -24 -9 -35 -19 -20 -19 -72 -45 -114
-57 -31 -9 -81 -43 -98 -67 -7 -10 -30 -27 -50 -37 -20 -10 -45 -28 -56 -40
-18 -20 -81 -39 -92 -28 -3 3 5 22 19 44 13 21 28 49 32 63 15 46 79 125 147
180 38 30 77 62 86 70 9 9 29 21 45 28 19 8 27 19 27 36 0 14 -4 27 -9 30 -4
3 -11 29 -15 57 -4 28 -13 67 -20 87 -17 45 -46 140 -76 242 -12 41 -26 86
-32 100 -6 14 -14 60 -19 102 -9 96 -12 100 -47 85 -33 -14 -142 -97 -142
-108 0 -4 -9 -11 -21 -14 -11 -4 -33 -19 -48 -33 -16 -15 -36 -32 -46 -37 -10
-6 -18 -22 -18 -38 1 -16 -5 -27 -13 -27 -7 0 -11 6 -8 13 7 18 -30 15 -53 -4
-10 -8 -30 -21 -44 -28 -30 -15 -59 -60 -59 -93 0 -14 -3 -18 -8 -11 -4 7 -13
9 -21 4 -11 -7 -10 -14 5 -37 11 -15 14 -25 7 -21 -7 4 -21 2 -32 -5 -15 -9
-23 -9 -36 2 -14 12 -18 12 -26 -1 -5 -8 -9 -17 -9 -20 0 -3 -9 -15 -20 -26
-18 -20 -18 -22 -2 -27 16 -6 32 -34 47 -85 l7 -24 19 24 c23 29 24 48 4 55
-23 9 -18 23 11 35 33 12 61 4 69 -21 9 -28 55 -29 84 -2 20 18 34 22 73 20
49 -3 49 -3 44 -33 -4 -16 -13 -33 -22 -38 -9 -5 -13 -16 -9 -28 4 -13 2 -19
-9 -19 -9 0 -16 -4 -16 -10 0 -5 -10 -10 -21 -10 -20 0 -21 -3 -15 -63 7 -61
7 -62 -21 -74 -15 -7 -39 -21 -53 -33 -19 -15 -42 -21 -91 -23 -81 -3 -101
-16 -89 -58 11 -38 6 -51 -31 -78 -16 -12 -27 -26 -24 -32 4 -5 -1 -9 -9 -9
-20 0 -21 -29 -1 -36 8 -4 13 -10 10 -14 -3 -4 5 -10 17 -13 19 -5 20 -11 14
-54 -6 -50 -36 -85 -66 -80 -19 3 -70 -55 -70 -79 0 -29 -16 -48 -34 -41 -10
4 -19 1 -22 -8 -4 -8 -12 -15 -19 -15 -8 0 -15 -14 -17 -32 -2 -22 -10 -36
-26 -44 -13 -6 -35 -23 -50 -37 -15 -13 -36 -28 -48 -31 -27 -8 -61 -44 -82
-87 -17 -35 -62 -54 -62 -27 0 8 -13 27 -30 43 -17 16 -30 35 -30 42 0 8 -12
13 -30 13 -32 0 -70 -33 -70 -62 0 -10 -18 -29 -40 -43 -26 -16 -40 -33 -40
-46 0 -12 -8 -23 -20 -26 -14 -4 -20 -14 -20 -34 0 -28 -6 -36 -45 -64 -17
-12 -18 -16 -7 -35 12 -19 11 -24 -5 -36 -10 -7 -23 -14 -30 -14 -16 0 -53
-66 -53 -94 0 -13 -14 -40 -30 -61 -18 -23 -28 -45 -25 -55 7 -22 -4 -50 -20
-50 -15 0 -68 -77 -60 -89 2 -5 -1 -11 -9 -14 -8 -3 -17 -21 -21 -39 -4 -18
-12 -39 -18 -46 -7 -9 -7 -16 1 -24 19 -19 14 -43 -13 -68 l-25 -24 22 -23
c18 -19 20 -27 11 -41 -6 -9 -18 -16 -28 -15 -18 1 -55 -30 -55 -47 0 -5 -4
-10 -10 -10 -5 0 -10 4 -10 10 0 5 -6 7 -14 4 -8 -3 -17 -1 -21 5 -3 6 5 15
19 21 22 8 24 14 19 43 -3 20 -1 37 6 41 6 4 11 27 11 51 0 35 4 45 20 50 23
7 23 9 11 52 -7 24 -6 35 5 44 8 6 14 18 14 25 0 8 5 14 11 14 13 0 1 42 -14
52 -6 4 1 10 16 13 22 6 27 13 26 34 -2 33 17 81 31 81 6 0 4 7 -5 16 -9 9
-14 23 -11 31 3 8 6 19 6 24 0 5 6 9 14 9 23 0 29 20 12 39 -23 26 -20 50 9
57 16 4 31 20 42 42 9 19 25 37 35 40 16 4 17 7 5 21 -21 24 -19 59 4 66 10 4
19 11 19 16 0 5 9 9 20 9 27 0 26 30 -1 37 -11 3 -18 11 -15 18 2 7 0 17 -6
23 -7 7 3 9 30 8 38 -2 40 -1 46 32 3 19 15 45 27 58 19 20 20 24 6 24 -23 0
-22 20 1 20 15 1 15 2 -2 15 -17 13 -17 15 -3 21 9 3 20 3 26 0 5 -4 29 14 53
38 35 37 50 46 84 48 33 2 51 12 88 46 42 38 47 49 52 95 6 61 24 80 61 66 33
-12 63 -11 93 4 29 15 60 11 60 -7 0 -7 -10 -23 -22 -35 -18 -20 -28 -23 -69
-18 -36 5 -49 2 -53 -9 -9 -22 10 -61 33 -67 13 -3 21 -13 21 -26 0 -66 133
43 138 113 2 20 -2 45 -8 57 -15 27 1 46 46 55 41 7 44 12 33 42 -8 22 -10 22
-38 7 -34 -17 -71 -20 -71 -5 0 6 -16 10 -35 10 -32 0 -35 -3 -35 -29 0 -41
-23 -58 -55 -41 -14 7 -25 21 -25 31 0 9 -3 24 -6 33 -5 13 1 16 26 16 26 0
30 3 21 14 -9 11 -5 15 19 20 29 5 50 35 50 71 0 16 -25 10 -51 -12 -9 -7 -19
-10 -22 -6 -4 3 -7 1 -7 -5 0 -16 -37 -15 -43 1 -7 20 -62 -15 -60 -38 1 -16
-29 -49 -47 -50 -3 0 -29 -13 -58 -28 -30 -15 -59 -27 -65 -27 -7 0 -28 -8
-47 -19 -37 -19 -41 -32 -56 -179 -7 -67 -35 -86 -104 -70 -25 5 -64 12 -88
15 l-44 5 7 -46 c10 -63 1 -87 -39 -114 -21 -15 -33 -29 -29 -38 3 -8 1 -14
-4 -14 -6 0 -20 -21 -33 -47 -12 -27 -28 -59 -35 -73 -7 -14 -13 -28 -14 -33
-1 -12 -20 -43 -21 -33 0 5 -9 1 -20 -9 -11 -10 -17 -21 -15 -25 3 -4 -3 -25
-12 -46 -9 -22 -17 -41 -18 -44 -2 -16 -23 -41 -31 -38 -5 1 -10 -14 -12 -35
-3 -35 -46 -95 -64 -89 -8 2 -23 -66 -20 -86 2 -6 -1 -12 -6 -12 -6 0 -13 -11
-16 -25 -4 -14 -13 -25 -22 -25 -8 0 -12 -5 -9 -10 9 -15 -4 -50 -19 -50 -6 0
-23 -18 -36 -41 -14 -22 -31 -47 -39 -56 -12 -13 -12 -16 0 -25 11 -7 11 -11
2 -15 -7 -2 -13 -11 -13 -19 0 -8 -6 -23 -12 -34 -10 -16 -10 -24 0 -40 19
-31 15 -50 -13 -51 -14 -1 -29 -3 -35 -4 -5 -1 -14 -3 -20 -4 -5 0 -10 -13
-10 -27 0 -14 -5 -34 -11 -45 -5 -11 -12 -33 -14 -50 -2 -17 -13 -38 -24 -46
-20 -14 -31 -60 -12 -48 5 3 12 1 16 -5 8 -13 435 -14 435 -1 0 5 -7 14 -15
21 -13 11 -12 16 8 41 12 15 28 28 35 28 6 1 12 7 12 14 0 6 8 3 16 -8 11 -14
14 -32 10 -62 l-6 -43 93 0 92 1 21 33 c12 19 18 38 14 43 -4 4 -11 18 -14 30
-6 17 0 24 33 40 21 10 44 26 50 36 10 15 7 17 -28 17 -34 0 -40 3 -38 20 1
11 7 20 14 20 27 0 64 24 58 38 -3 9 -1 19 6 22 9 6 16 35 18 87 1 6 9 19 18
29 11 10 16 29 14 49 -2 27 2 33 21 38 13 4 25 2 26 -3 6 -18 22 -10 22 10 0
22 16 54 43 84 13 15 14 22 5 28 -9 5 -8 8 5 8 9 0 17 6 17 14 0 7 9 16 20 19
11 3 20 0 20 -5 0 -6 6 -5 15 2 21 17 19 25 -9 38 -21 9 -25 8 -29 -6 -3 -10
-5 -4 -6 11 -1 21 5 30 19 34 11 3 17 9 14 14 -3 5 14 9 37 9 40 0 41 -1 26
-18 -23 -25 -21 -32 8 -32 21 0 25 -5 25 -30 0 -16 5 -30 10 -30 6 0 10 5 10
10 0 15 14 12 36 -8 29 -25 45 -26 61 -2 11 16 18 18 28 10 8 -7 19 -9 25 -5
9 6 60 -37 60 -51 0 -2 -13 -3 -28 -2 -32 2 -55 -9 -46 -23 3 -5 0 -16 -6 -24
-6 -8 -9 -19 -6 -24 4 -5 -7 -18 -24 -27 -34 -21 -39 -34 -11 -34 25 0 41 -22
35 -47 -7 -25 -42 -37 -62 -21 -11 10 -13 4 -8 -33 2 -24 5 -46 6 -49 0 -3 7
3 15 14 11 15 19 16 42 9 38 -13 35 -35 -5 -47 -25 -7 -36 -6 -42 4 -4 7 -13
9 -19 6 -6 -4 -9 -11 -7 -15 14 -21 14 -68 1 -87 -12 -18 -12 -24 -1 -33 18
-15 17 -57 0 -72 -19 -15 -18 -35 2 -43 11 -4 14 -13 10 -31 l-6 -25 167 0
c144 0 174 3 211 20 73 33 103 34 145 6 l38 -26 299 0 c193 0 300 4 300 10 0
6 14 10 31 10 19 0 28 -4 24 -11 -5 -7 16 -9 65 -7 62 2 73 5 80 23 5 11 22
34 39 52 30 31 41 63 22 63 -5 0 -11 9 -14 20 -3 13 0 20 8 20 8 0 15 -8 17
-17 2 -14 10 -11 41 16 20 18 37 39 37 47 0 7 11 21 25 30 14 9 25 24 25 33 0
17 49 71 63 71 4 0 7 -7 7 -15 0 -18 60 -21 76 -5 7 7 16 4 28 -9 16 -18 16
-20 -12 -40 -33 -23 -53 -26 -68 -11 -12 12 -47 2 -39 -10 12 -20 -9 -72 -32
-81 -45 -17 -115 -101 -94 -113 14 -9 19 -54 8 -65 -8 -8 9 -11 55 -11 37 0
70 5 73 10 8 14 52 13 57 -1 8 -25 48 10 48 41 0 36 30 55 68 44 54 -15 53
-16 46 37 -6 45 -5 49 13 49 12 0 26 -7 33 -15 19 -23 55 -18 92 12 18 15 35
28 37 30 2 2 1 6 -2 9 -4 4 -13 1 -22 -6 -16 -13 -45 -7 -45 9 0 16 55 41 76
35 11 -3 30 -1 44 5 14 5 18 10 9 10 -12 1 -14 9 -11 31 5 32 34 55 58 46 20
-8 18 -43 -3 -55 -16 -9 -16 -13 -5 -32 13 -20 11 -24 -15 -45 -15 -13 -31
-23 -35 -24 -4 0 -15 -17 -25 -38 -9 -20 -21 -40 -26 -43 -5 -4 -11 -17 -12
-30 -4 -38 -4 -39 -20 -39 -8 0 -15 -4 -15 -9 0 -4 -15 -13 -32 -19 -26 -8 1
-10 128 -11 173 -1 174 -1 174 50 0 14 7 19 29 19 15 0 40 9 55 21 45 35 50
15 8 -31 -23 -24 -39 -47 -36 -52 3 -4 34 -8 69 -8 47 0 63 3 60 13 -6 16 46
40 59 27 6 -6 -1 -14 -20 -22 -27 -12 -23 -13 54 -16 56 -2 89 1 99 9 12 10
17 10 25 -2 7 -11 11 -11 15 -1 2 6 11 12 19 12 13 0 18 15 16 50 -1 25 18 50
39 50 19 0 19 -1 3 -32 -11 -22 -13 -33 -5 -36 16 -5 13 -23 -6 -38 -15 -12
62 -14 495 -13 l513 1 9 24 c13 34 44 33 36 -1 l-6 -25 190 0 c165 0 192 2
210 17 11 10 20 23 20 30 0 15 19 17 39 4 20 -13 6 -41 -21 -42 -18 -1 -19 -2
-5 -6 10 -3 24 0 32 7 9 8 15 8 20 0 10 -16 909 -13 937 3 16 9 22 9 25 0 6
-16 203 -19 203 -3 0 6 -4 10 -10 10 -16 0 -12 20 6 27 10 4 24 -4 39 -21 20
-24 29 -26 97 -26 44 0 79 5 86 12 9 9 15 9 24 0 17 -17 238 -16 274 0 22 10
28 10 32 0 3 -9 70 -12 282 -12 234 0 280 2 290 15 13 15 35 11 25 -6 -4 -5
87 -9 231 -9 185 0 235 3 226 12 -7 7 -12 16 -12 20 0 15 30 8 50 -12 19 -19
33 -20 273 -20 186 0 256 3 265 12 10 10 17 10 32 0 11 -7 53 -12 95 -12 67 0
75 2 75 19 0 10 -6 24 -14 30 -8 7 -18 26 -21 43 -5 19 -18 36 -36 47 -21 11
-29 24 -29 43 0 15 -11 47 -25 72 -14 25 -25 52 -25 60 0 9 -9 21 -20 28 -11
7 -20 19 -20 26 0 19 -56 126 -74 141 -9 8 -16 20 -16 28 0 8 -10 24 -23 36
-13 12 -29 41 -35 65 -7 23 -25 57 -40 75 -15 17 -33 45 -40 61 -7 16 -28 47
-46 70 -19 22 -37 51 -40 63 -4 11 -13 27 -21 33 -8 7 -15 19 -15 27 0 8 -10
29 -23 46 -12 18 -27 39 -32 48 -33 53 -65 97 -72 100 -16 7 -63 76 -63 92 0
9 -18 37 -40 62 -22 25 -40 52 -40 59 0 7 -14 25 -31 42 -27 26 -89 138 -89
161 0 4 -9 14 -20 21 -11 7 -20 18 -20 25 0 15 -113 127 -127 127 -5 0 -16 12
-25 27 -27 44 -152 170 -176 177 -12 4 -22 11 -22 15 0 23 -273 303 -336 345
-28 18 -44 37 -47 56 -4 16 -22 44 -42 64 -19 19 -35 45 -35 56 0 59 -50 108
-116 115 -98 10 -169 39 -183 75 -5 14 -12 39 -16 55 -9 41 -43 75 -74 75 -18
0 -40 15 -71 49 -38 41 -52 50 -85 53 -33 2 -41 7 -43 25 -6 43 -108 93 -189
93 -37 0 -45 4 -57 29 -16 30 -52 42 -123 42 -29 1 -32 4 -39 42 -4 23 -7 86
-5 140 1 62 -1 97 -8 97 -14 0 -41 53 -41 79 0 21 -57 152 -70 161 -4 3 -10
26 -14 52 -4 25 -13 51 -20 57 -8 7 -12 31 -11 67 2 37 -4 69 -16 94 -11 22
-19 41 -19 44 0 2 16 10 35 16 40 13 41 17 18 59 -14 24 -38 39 -101 66 -46
19 -89 35 -95 35 -6 0 -18 6 -26 14 -9 8 -33 17 -53 21 -34 7 -39 5 -48 -19
-6 -18 -20 -28 -40 -33 -21 -4 -29 -10 -26 -19 3 -9 -2 -14 -14 -14 -11 0 -20
6 -20 14 0 8 -10 16 -23 20 -20 5 -23 10 -19 43 2 21 11 46 20 56 12 13 13 20
4 29 -14 14 -16 54 -4 62 4 3 7 68 5 145 -2 139 8 198 37 216 5 3 10 17 10 30
0 13 4 26 9 29 5 3 12 42 16 86 l7 80 107 0 c92 0 110 3 124 18 25 27 21 35
-7 16 -17 -11 -51 -16 -113 -17 -113 -2 -150 14 -192 83 -52 84 -67 66 -80
-97 -1 -7 -9 -13 -18 -13 -13 0 -14 -3 -5 -12 15 -15 16 -45 1 -50 -5 -2 -11
-11 -13 -21 -1 -10 -9 -26 -17 -35 -8 -10 -20 -30 -28 -45 -8 -15 -20 -27 -28
-27 -7 0 -13 -7 -13 -15 0 -8 7 -15 16 -15 9 0 14 -6 11 -12 -2 -7 -12 -12
-22 -10 -13 3 -16 -1 -12 -12 5 -12 0 -16 -18 -16 -22 0 -25 -4 -25 -35 0 -27
-3 -33 -15 -29 -19 8 -46 -14 -44 -35 3 -32 -1 -40 -28 -49 -26 -10 -26 -10
-5 -11 31 -1 17 -21 -15 -21 -18 0 -24 4 -19 15 3 8 1 15 -4 15 -6 0 -10 -9
-10 -20 0 -20 -15 -28 -22 -11 -5 15 -32 17 -34 4 -1 -7 -2 -16 -3 -20 0 -4
-10 3 -21 15 -11 11 -17 28 -14 36 7 17 24 22 24 7 0 -5 11 -8 24 -9 19 0 22
5 18 21 -4 16 -2 19 11 14 11 -4 17 -1 17 8 0 7 -8 13 -17 13 -10 0 -31 4 -47
11 -23 9 -27 16 -22 34 3 12 6 25 6 30 0 4 7 7 15 7 8 0 17 11 21 25 4 16 13
25 25 25 12 0 23 10 29 26 13 34 13 34 -10 34 -28 0 -25 22 7 54 20 21 27 38
29 76 1 28 -2 50 -7 50 -16 0 -10 17 9 24 15 6 34 16 70 39 9 6 7 13 -10 28
l-23 19 23 6 c27 8 28 19 3 45 -22 23 -34 59 -20 59 5 0 9 5 9 10 0 6 -7 10
-16 10 -24 0 1 28 29 32 15 2 21 9 19 21 -2 9 1 17 5 17 9 0 10 5 16 73 1 20
9 45 17 55 8 9 16 32 16 50 2 26 -2 32 -18 32 -22 0 -59 40 -51 54 3 4 9 2 14
-5 6 -10 9 -8 9 7 0 12 7 27 14 34 8 6 20 28 27 48 7 20 20 47 29 59 9 12 17
42 19 69 1 27 8 55 17 65 9 10 18 36 21 58 3 23 10 44 14 47 5 3 9 21 9 40 0
20 6 37 14 40 8 3 17 25 20 48 7 43 32 66 70 66 12 0 26 -20 26 -36 0 -12 -19
-1 -23 14 -3 9 -5 -2 -6 -25 -1 -49 36 -124 50 -101 5 7 9 23 9 36 0 13 5 32
11 44 10 18 17 13 99 -71 49 -50 92 -91 97 -91 14 0 33 -38 38 -74 3 -30 -2
-40 -36 -73 -42 -41 -50 -63 -21 -63 29 0 105 59 98 76 -3 8 -1 14 4 14 5 0 8
8 8 18 0 9 3 25 7 35 4 11 3 17 -5 17 -7 0 -10 8 -7 20 3 11 1 20 -4 20 -5 0
-7 11 -3 25 4 16 2 25 -5 25 -7 0 -11 6 -9 13 3 15 -22 77 -32 77 -4 0 -6 14
-5 30 1 17 -3 30 -9 30 -6 0 -5 4 3 9 28 18 3 57 -68 104 -53 35 -71 43 -81
34 -10 -9 -11 -9 -6 1 4 6 4 12 -1 12 -4 0 -14 -12 -21 -28 -20 -42 -40 -65
-52 -57 -28 17 26 123 63 124 9 1 17 9 18 19 0 15 1 15 8 -2 6 -17 11 -14 42
23 19 23 44 54 56 69 13 15 23 32 23 38 0 6 19 16 42 22 50 13 84 -2 94 -43 3
-14 13 -25 21 -25 9 0 13 -6 9 -15 -3 -9 0 -15 9 -15 19 0 19 -14 1 -30 -16
-13 -16 -30 4 -182 7 -54 16 -98 21 -98 5 0 9 -7 9 -15 0 -18 20 -20 21 -2 0
6 2 21 5 32 2 11 7 53 10 93 4 39 10 72 14 72 4 0 8 11 8 24 -1 13 5 47 12 75
9 40 18 53 40 63 16 7 26 16 24 20 -3 5 1 11 9 14 9 3 16 28 21 74 7 81 13
100 32 100 14 0 18 15 14 58 -1 13 4 29 10 37 7 9 13 61 15 130 3 96 7 119 23
140 17 21 20 43 21 142 1 79 6 120 14 125 20 12 23 438 4 537 -6 31 -11 137
-12 236 -1 177 -13 283 -34 323 -6 12 -11 32 -11 47 0 14 -11 42 -24 63 -18
28 -25 56 -29 114 -3 43 -1 80 4 83 17 11 9 44 -16 63 -26 21 -35 72 -12 72
24 0 38 39 32 85 -9 58 0 85 30 85 35 0 59 39 45 74 -14 39 -12 72 5 86 9 8
15 29 15 55 0 37 3 44 25 49 29 7 30 16 11 71 -8 25 -26 49 -47 63 -19 13 -38
30 -42 38 -4 8 -12 14 -18 14 -21 0 -71 47 -85 79 -8 18 -14 57 -14 85 0 73
-8 93 -40 104 -43 16 -70 44 -70 74 0 22 -7 31 -27 39 -16 6 -36 15 -45 20 -9
4 -47 11 -85 15 -87 9 -103 17 -103 55 0 17 -11 45 -26 65 -24 30 -26 40 -21
87 5 37 2 61 -8 81 -8 15 -15 35 -15 42 0 8 -17 21 -39 30 -21 8 -47 26 -58
38 -14 16 -37 26 -69 30 -27 4 -58 13 -69 20 -11 7 -67 16 -125 19 -58 3 -118
10 -135 15 -108 36 -220 46 -184 18 8 -6 20 -23 26 -38 10 -21 9 -29 -2 -38
-10 -8 -25 -5 -64 14 -28 15 -63 28 -79 29 -66 7 -70 39 -7 57 24 7 56 10 70
6 38 -10 31 10 -14 38 -22 14 -42 30 -46 36 -3 5 -16 10 -29 10 -12 0 -27 5
-34 12 -17 17 -317 25 -326 9 -4 -6 -18 -11 -31 -11 -13 0 -25 -6 -28 -12 -3
-10 -11 -9 -34 4 -26 15 -30 15 -39 1 -9 -14 -12 -14 -29 3 -18 19 -18 19 7
22 24 3 26 7 26 51 l1 49 -53 6 c-42 6 -63 15 -96 44 -34 29 -50 36 -77 33
-19 -1 -40 3 -48 9 -7 6 -29 10 -47 8 -33 -4 -33 -4 -8 -15 14 -6 40 -34 59
-63 18 -28 40 -54 47 -57 8 -3 14 -14 14 -25 0 -10 -4 -16 -10 -13 -5 3 -10
-3 -10 -14 0 -12 4 -21 10 -21 5 0 9 -6 7 -12 -1 -7 9 -14 23 -16 28 -4 42
-21 35 -40 -6 -18 22 -72 38 -72 11 0 40 -35 35 -42 -1 -2 4 -12 10 -24 l11
-21 -42 20 c-23 12 -43 25 -45 29 -2 4 -13 3 -25 -3 -16 -9 -23 -8 -31 3 -6 7
-26 24 -44 37 -18 13 -31 28 -29 35 2 6 0 24 -4 40 -7 23 -5 32 9 42 10 7 13
16 8 21 -5 4 -11 2 -13 -4 -5 -15 -33 -17 -33 -3 0 18 -58 11 -69 -7 -8 -15
-12 -16 -22 -5 -15 14 -65 16 -74 2 -9 -15 -51 -12 -68 4 -12 13 -43 22 -57
16 -45 -17 -101 13 -133 70 -10 19 -23 37 -28 38 -8 3 -42 59 -44 72 0 3 -12
17 -26 33 -36 38 -74 36 -88 -3 -5 -16 -7 -30 -4 -30 3 0 -6 -9 -21 -21 -25
-20 -29 -20 -59 -6 -41 21 -56 6 -29 -28 20 -25 20 -55 1 -55 -5 0 -9 -9 -9
-20 0 -15 -7 -20 -25 -20 -16 0 -25 6 -25 15 0 8 -4 15 -10 15 -5 0 -10 10
-10 23 0 13 -6 29 -12 35 -7 7 -15 36 -18 65 -5 51 -6 52 -35 49 -47 -5 -228
-2 -246 3 -9 3 -28 -6 -42 -19z m-1005 -936 c-16 -13 -17 -20 -7 -49 6 -18 20
-38 30 -44 20 -11 35 -27 35 -39 0 -8 -74 -8 -86 1 -14 10 -34 49 -34 66 0 21
-76 21 -84 0 -9 -25 -121 -16 -113 9 2 6 23 17 48 25 24 8 50 23 58 34 11 16
21 18 60 12 25 -3 54 -9 64 -11 12 -4 18 -1 16 8 -4 35 2 43 17 23 13 -18 13
-21 -4 -35z m1527 -44 c6 -7 9 -20 6 -28 -7 -19 -79 -53 -93 -44 -5 3 -25 -9
-43 -27 -21 -21 -60 -43 -99 -56 -36 -13 -70 -29 -76 -36 -14 -19 -140 -65
-175 -65 -27 0 -28 2 -17 20 7 11 17 20 23 20 6 0 22 8 35 17 14 10 32 17 40
15 8 -1 30 13 47 31 18 19 48 42 68 51 19 9 61 34 92 55 48 32 110 54 169 60
6 0 17 -5 23 -13z m-2205 -273 c21 -44 25 -58 14 -64 -7 -5 -16 -9 -20 -9 -14
0 -8 -64 7 -94 24 -45 4 -82 -31 -58 -15 10 -36 89 -38 142 0 25 -5 51 -9 58
-5 7 -4 18 1 25 5 7 12 24 16 39 9 39 27 27 60 -39z m2756 -943 c0 -23 5 -30
19 -30 11 0 22 -4 26 -10 3 -5 12 -7 20 -4 7 3 18 -4 25 -15 17 -33 30 -24 14
9 -9 17 -22 30 -30 30 -8 0 -14 5 -14 10 0 6 8 10 18 8 10 -2 16 2 14 11 -3
12 1 12 20 -1 29 -19 70 -90 59 -101 -12 -12 85 -101 100 -92 8 6 7 10 -2 16
-11 7 -11 9 1 9 9 0 21 -13 27 -30 7 -19 20 -31 39 -36 16 -4 47 -26 69 -48
40 -40 104 -70 130 -60 7 3 16 -3 20 -15 3 -11 14 -23 25 -26 10 -3 21 -17 24
-31 4 -14 14 -28 24 -31 9 -4 20 -11 24 -17 14 -21 53 -13 80 15 27 29 58 39
58 18 0 -6 8 -8 19 -4 13 4 27 -1 42 -16 15 -15 23 -18 29 -9 5 8 9 5 13 -9 3
-14 0 -21 -9 -21 -16 0 -19 -16 -4 -25 6 -3 10 -16 10 -27 0 -12 -3 -18 -7
-15 -7 8 -43 -21 -43 -35 0 -5 9 -6 20 -3 20 6 28 -9 10 -20 -5 -3 -6 -13 -3
-21 4 -10 -1 -17 -14 -20 -17 -5 -20 -14 -19 -47 0 -24 -4 -42 -12 -45 -6 -2
-12 -10 -12 -18 0 -9 4 -12 10 -9 10 6 11 -6 10 -82 0 -33 5 -45 25 -61 17
-14 21 -22 13 -25 -8 -4 -7 -6 4 -6 9 -1 28 -11 42 -23 13 -13 33 -29 43 -36
10 -7 23 -16 28 -20 13 -9 55 -69 56 -79 0 -4 20 -24 44 -43 24 -19 44 -42 44
-52 1 -9 5 -18 10 -20 5 -1 30 -23 56 -46 33 -32 48 -54 52 -80 4 -22 19 -49
40 -70 19 -19 32 -40 29 -48 -3 -8 -1 -14 4 -14 6 0 10 -5 10 -10 0 -12 -75
-7 -135 10 -22 6 -60 16 -85 22 -25 6 -47 14 -50 18 -3 4 -30 10 -60 12 -69 6
-193 35 -228 54 -15 8 -37 14 -49 14 -13 0 -23 5 -23 10 0 6 5 10 10 10 6 0
-5 14 -25 31 -19 17 -35 39 -35 49 0 10 -10 21 -22 25 l-23 7 25 8 c25 8 25 8
2 9 -27 1 -72 46 -72 72 0 12 -5 16 -14 13 -9 -3 -17 3 -21 15 -8 27 -21 27
-29 -1 -9 -36 -7 -73 6 -86 6 -6 8 -15 4 -19 -4 -4 -10 -3 -14 2 -4 6 -21 10
-39 11 -17 1 -39 8 -47 17 -9 8 -42 21 -74 27 -31 6 -69 13 -84 16 -16 3 -28
10 -28 15 0 5 -5 9 -11 9 -11 0 -91 33 -123 52 -11 6 -49 12 -85 13 -36 1 -84
10 -106 19 -22 9 -64 17 -95 17 -97 -1 -269 7 -278 13 -9 5 -61 -9 -94 -25
-26 -13 -76 -11 -85 4 -6 8 -29 11 -76 9 -64 -4 -70 -6 -85 -33 -17 -29 -45
-38 -57 -19 -9 15 -106 9 -140 -9 -16 -8 -35 -14 -41 -13 -7 1 -14 -7 -17 -18
-3 -14 -13 -20 -31 -20 -21 0 -26 -5 -26 -25 0 -27 -8 -32 -50 -37 -14 -2 -29
-6 -35 -8 -27 -14 -105 6 -105 25 0 8 -9 13 -20 12 -11 -1 -20 -5 -20 -9 0 -4
-7 -8 -15 -8 -8 0 -15 7 -15 16 0 11 -5 14 -16 10 -10 -4 -23 1 -31 11 -14 17
-14 17 -9 1 4 -14 -1 -18 -24 -18 -17 0 -30 4 -30 9 0 5 -14 14 -31 20 -29 10
-72 40 -111 77 -9 9 -23 14 -31 11 -8 -3 -27 1 -42 9 -15 8 -31 11 -36 8 -9
-5 -115 16 -190 38 -25 7 -60 7 -113 0 -60 -8 -87 -7 -133 5 -50 13 -62 13
-107 -1 -28 -8 -69 -19 -91 -23 -76 -14 -107 -29 -103 -50 2 -15 -5 -18 -37
-19 -22 -1 -82 -5 -134 -9 l-94 -8 7 34 c4 19 14 78 22 132 8 54 21 108 28
120 8 12 17 42 21 67 7 42 23 90 46 133 6 10 12 34 14 53 3 18 13 42 22 52 10
10 34 36 55 59 20 23 49 47 64 55 15 7 35 28 44 45 10 18 23 40 31 49 12 15
108 64 125 64 3 0 22 14 41 30 34 30 51 34 138 32 23 -1 52 7 70 18 17 11 44
18 60 17 16 -1 30 3 30 8 0 6 5 18 11 29 10 16 14 16 33 5 19 -12 23 -12 32 4
6 9 14 15 19 12 5 -3 28 6 50 20 24 15 46 22 53 18 7 -4 14 -8 17 -9 76 -13
123 -15 129 -5 11 17 41 2 41 -20 0 -15 5 -18 33 -13 55 10 63 14 48 23 -19
12 -4 31 25 31 17 0 24 -6 24 -19 0 -11 -6 -21 -12 -24 -7 -2 -10 -7 -7 -10 3
-4 20 -1 37 5 27 11 33 10 45 -6 8 -11 27 -18 49 -19 26 -1 34 -5 31 -14 -4
-11 1 -12 20 -8 14 4 44 8 67 9 22 1 49 9 58 17 16 14 21 14 41 1 19 -13 24
-13 31 -1 8 11 19 9 67 -15 36 -18 77 -30 109 -31 29 -2 62 -6 73 -10 12 -4
27 -2 34 3 7 5 28 7 49 5 28 -4 38 -10 42 -29 4 -14 11 -22 17 -19 5 4 7 16 3
27 -5 18 -3 20 16 15 12 -3 34 -1 48 4 18 7 28 6 34 -3 6 -9 7 -6 3 9 -6 23
10 41 18 20 7 -18 87 -10 87 9 0 8 10 14 21 14 17 0 19 3 10 14 -8 9 -8 16 -2
20 5 4 12 2 16 -4 4 -6 12 -4 22 6 9 8 27 14 42 14 48 -4 61 0 61 17 0 15 2
15 19 -1 21 -19 46 -13 37 10 -4 11 4 14 34 14 30 0 40 -4 40 -16 0 -11 6 -14
20 -9 13 4 31 0 45 -9 23 -15 26 -15 45 1 14 12 16 19 8 24 -9 6 -8 11 1 23
22 26 41 19 41 -14z m-2640 -1168 c0 -4 -9 -14 -20 -22 -24 -17 -25 -38 -5
-64 8 -11 15 -28 15 -38 0 -10 5 -18 10 -18 6 0 10 7 10 16 0 8 5 12 10 9 15
-9 12 -35 -4 -35 -11 0 -11 -9 -3 -45 12 -50 0 -77 -25 -58 -25 19 -48 22 -63
7 -20 -20 -19 -34 3 -35 10 0 12 -3 5 -6 -7 -2 -13 -11 -13 -19 0 -8 -3 -14
-7 -15 -5 0 -18 -2 -29 -5 -36 -6 -58 38 -51 102 6 59 27 124 39 124 4 0 8 11
8 23 0 15 9 28 23 35 17 8 18 11 5 11 -29 1 -21 16 15 28 40 13 77 16 77 5z
m1615 -339 c-2 -8 4 -13 16 -13 15 0 19 -5 15 -16 -3 -8 -1 -24 4 -34 7 -13 6
-20 -3 -24 -23 -9 27 -31 73 -31 43 0 45 -2 48 -30 2 -22 -6 -39 -28 -62 -17
-18 -35 -33 -41 -33 -19 0 -8 -32 21 -56 16 -14 27 -30 25 -37 -3 -7 3 -21 13
-32 16 -19 70 -59 82 -60 3 -1 19 -8 35 -17 17 -9 48 -19 69 -23 21 -4 40 -14
43 -21 3 -8 13 -14 22 -14 20 0 81 -37 98 -59 7 -9 13 -12 13 -7 0 5 7 3 15
-4 8 -7 15 -9 15 -4 0 5 7 -1 15 -13 15 -21 21 -22 123 -17 185 9 197 10 212
16 22 9 91 22 125 22 25 1 30 5 29 24 0 17 4 21 17 17 9 -3 20 -1 24 5 4 6 15
8 26 5 18 -6 28 9 12 18 -5 2 -3 3 2 2 6 -1 34 1 63 5 60 7 64 0 34 -60 -41
-84 -100 -156 -152 -186 -81 -46 -166 -57 -384 -51 -258 8 -312 19 -473 99
-123 61 -145 110 -184 403 -5 44 -16 87 -23 95 -13 14 -31 77 -24 82 1 2 -5
14 -15 28 -20 28 -22 72 -5 99 9 15 15 17 30 8 10 -7 16 -18 13 -24z m-1920
-68 c76 -68 91 -73 116 -44 11 13 23 36 26 52 6 30 21 45 32 31 11 -16 46 -31
68 -29 26 2 38 -21 22 -41 -20 -25 -1 -62 44 -86 42 -22 118 -38 87 -18 -12 8
-11 10 7 10 12 0 26 7 31 15 4 9 24 18 43 21 28 5 41 0 72 -24 l37 -30 -40
-21 c-42 -22 -96 -29 -85 -11 9 15 -22 12 -55 -5 -34 -18 -37 -31 -14 -56 9
-10 23 -32 32 -51 13 -24 29 -37 67 -50 27 -10 51 -22 53 -28 2 -5 12 -10 22
-10 10 0 21 -4 24 -9 3 -4 25 -12 48 -16 140 -26 223 -19 328 28 25 11 59 26
75 33 17 8 54 18 83 24 30 5 58 12 63 16 6 3 3 -11 -6 -33 -9 -21 -20 -39 -25
-41 -6 -2 -10 -9 -10 -16 0 -17 -82 -126 -117 -156 -38 -32 -69 -50 -87 -50
-8 0 -16 -4 -18 -9 -8 -23 -165 -44 -328 -44 -182 0 -320 22 -408 64 -58 28
-133 102 -151 149 -8 19 -20 42 -28 51 -25 29 -83 278 -83 357 0 51 4 72 13
72 6 0 34 -20 62 -45z m1616 13 c9 -7 22 -24 31 -38 15 -25 90 -222 103 -270
21 -79 64 -175 112 -247 57 -85 83 -110 168 -158 78 -45 132 -102 147 -157 11
-44 11 -50 -10 -75 -12 -16 -26 -37 -31 -49 -27 -62 -160 -86 -221 -40 -52 40
-193 94 -264 101 -38 4 -83 -15 -69 -28 3 -4 -3 -7 -14 -7 -11 0 -32 -9 -46
-20 -26 -20 -57 -27 -57 -12 0 5 -23 8 -50 7 -28 -1 -53 1 -55 5 -2 3 -44 5
-94 5 -50 -1 -91 2 -91 7 0 4 -11 15 -26 24 -19 13 -28 14 -37 5 -9 -9 -6 -13
11 -17 12 -4 22 -12 22 -20 0 -16 -23 -9 -63 19 -21 14 -25 22 -17 32 9 10 -1
12 -47 9 -104 -6 -121 -12 -142 -51 -14 -28 -5 -50 29 -68 37 -19 100 -76 100
-91 0 -6 6 -17 14 -23 21 -18 16 -49 -6 -43 -21 5 -25 -17 -6 -36 8 -8 8 -15
1 -24 -6 -7 -13 -25 -15 -40 -4 -23 -2 -28 14 -28 11 0 17 -4 14 -9 -10 -16
22 -20 91 -10 124 18 165 20 158 9 -4 -6 5 -10 20 -10 15 0 24 -4 20 -10 -3
-5 -2 -10 4 -10 5 0 13 5 16 10 4 6 11 8 16 5 5 -4 9 1 9 9 0 16 10 19 67 20
18 1 32 6 32 11 0 6 -7 9 -16 7 -10 -2 -14 3 -11 15 4 23 38 31 38 9 0 -9 8
-16 19 -16 10 0 24 -7 31 -15 7 -8 23 -15 36 -15 13 0 35 -11 50 -25 15 -14
35 -25 45 -25 10 0 38 -5 61 -11 34 -9 55 -8 102 4 50 14 65 14 97 3 62 -21
104 -12 118 28 7 17 4 22 -16 26 -19 4 -30 17 -44 54 -24 60 -18 81 29 106 20
11 44 25 52 30 22 13 101 46 130 54 14 3 38 24 54 45 16 22 34 39 40 38 6 -1
10 4 9 11 -2 6 4 12 12 12 8 0 15 5 15 10 0 17 26 -2 58 -43 18 -22 28 -45 25
-56 -3 -13 2 -20 19 -24 18 -5 20 -9 11 -18 -9 -9 -9 -16 -2 -25 28 -34 47
-87 42 -118 -4 -29 -1 -35 39 -61 86 -59 113 -84 137 -128 12 -21 21 -40 21
-42 0 -3 -13 -5 -30 -5 -16 0 -30 5 -30 10 0 6 -11 15 -24 21 -16 8 -26 23
-31 45 -8 45 -28 33 -23 -14 4 -28 1 -36 -15 -40 -15 -4 -18 -12 -15 -42 4
-41 -17 -65 -47 -54 -19 8 -19 9 8 45 l22 31 -38 31 c-20 18 -37 38 -37 45 0
6 -4 12 -10 12 -5 0 -10 -5 -10 -11 0 -7 -10 -9 -25 -5 -14 4 -25 2 -25 -4 0
-5 5 -10 10 -10 6 0 10 -9 10 -20 0 -11 -4 -20 -9 -20 -11 0 -20 -46 -14 -71
3 -11 17 -22 31 -26 l25 -6 -24 -13 -24 -13 27 -1 c14 0 29 6 31 13 3 7 6 5 6
-5 1 -10 -6 -18 -15 -18 -10 0 -14 -6 -10 -15 3 -8 -4 -21 -17 -30 -24 -17
-51 -20 -42 -5 4 6 -13 10 -42 11 -55 1 -55 2 -103 13 -19 5 -40 12 -46 17 -6
5 -38 16 -73 24 -34 9 -81 25 -104 35 -23 11 -54 20 -68 20 -14 0 -45 9 -69
21 -24 12 -55 23 -69 24 -44 6 -173 6 -246 1 -45 -3 -96 0 -140 11 -39 8 -110
16 -160 16 -74 1 -105 -3 -175 -27 -47 -16 -94 -34 -105 -41 -11 -6 -37 -15
-59 -19 -21 -4 -47 -13 -57 -19 -15 -10 -22 -8 -39 8 -17 18 -18 27 -10 82 10
72 5 99 -22 130 -18 20 -18 22 -3 31 16 8 16 14 4 61 -8 32 -16 46 -21 39 -6
-10 -8 -10 -8 1 0 14 42 102 59 123 6 7 23 29 39 48 27 32 29 40 25 104 -6 97
12 171 49 206 16 16 66 48 111 71 45 23 87 47 92 53 6 6 57 81 114 166 57 85
110 162 118 171 18 21 53 90 53 104 0 6 23 34 50 63 28 29 50 56 50 61 0 5 8
12 18 15 9 4 33 16 52 26 40 23 70 25 91 8z m910 -10 c0 -4 13 -33 29 -64 41
-77 40 -88 -8 -82 -21 3 -58 15 -82 27 -24 11 -46 19 -48 16 -3 -3 -11 3 -17
12 -11 14 -8 21 14 42 47 45 112 74 112 49z m2510 -220 c16 -18 29 -38 29 -44
0 -7 3 -20 7 -29 5 -15 3 -16 -15 -6 -30 16 -117 14 -131 -3 -7 -8 -22 -17
-35 -20 -12 -3 -28 -16 -35 -30 -26 -48 -101 -67 -125 -31 -17 26 -14 31 30
50 17 7 44 30 60 51 59 82 75 93 132 93 47 1 56 -2 83 -31z m-724 -2274 c3 -8
1 -20 -5 -26 -6 -6 -8 -17 -5 -26 5 -12 1 -14 -15 -10 -28 8 -39 -8 -12 -17
20 -6 20 -6 0 -28 -11 -11 -20 -29 -20 -39 0 -10 -6 -18 -12 -18 -7 0 -26 -28
-43 -61 -16 -34 -40 -69 -53 -80 -27 -21 -82 -94 -82 -109 0 -5 -4 -10 -9 -10
-5 0 -33 -19 -63 -43 -29 -24 -61 -46 -70 -50 -10 -3 -18 -14 -18 -22 0 -9 -4
-13 -10 -10 -5 3 -10 2 -10 -3 0 -5 -29 -32 -65 -60 -44 -34 -73 -49 -90 -48
-13 2 -23 -1 -22 -7 1 -5 -10 -13 -25 -18 -16 -4 -28 -4 -28 1 0 17 12 40 21
40 16 0 251 227 314 303 22 27 52 63 68 80 15 17 27 36 27 42 0 7 11 22 25 35
14 13 25 29 25 35 0 16 35 55 49 55 6 0 11 12 11 26 0 19 4 25 15 20 8 -3 15
-1 15 4 0 6 -5 10 -11 10 -5 0 -7 5 -3 11 3 6 17 8 30 5 19 -5 24 -2 24 14 0
24 38 28 47 4z m-64 -316 c-4 -7 -6 -25 -4 -40 1 -16 -1 -28 -6 -28 -4 0 -15
-15 -22 -32 -8 -18 -23 -39 -33 -46 -10 -7 -29 -37 -43 -67 -25 -52 -146 -183
-183 -196 -9 -4 -26 -16 -36 -28 -11 -11 -23 -21 -27 -21 -4 0 -20 -5 -36 -12
-15 -6 -31 -11 -34 -10 -4 1 -19 -10 -33 -23 -15 -14 -29 -25 -31 -25 -2 0
-16 -11 -31 -25 -15 -14 -36 -25 -48 -25 -14 0 -17 -3 -9 -8 17 -11 -62 -46
-79 -36 -7 4 -9 3 -5 -1 4 -5 -3 -15 -15 -22 -18 -10 -20 -12 -5 -13 9 0 17
-4 17 -10 0 -14 -24 -12 -38 2 -10 10 -15 10 -22 -2 -15 -23 -12 -29 12 -22
14 3 19 2 14 -6 -4 -7 -13 -12 -20 -12 -7 0 -26 -11 -42 -25 -16 -14 -35 -25
-41 -25 -7 0 -13 -4 -13 -10 0 -5 -5 -10 -12 -10 -6 0 -18 -7 -27 -16 -9 -8
-50 -35 -91 -59 -130 -76 -139 -80 -157 -69 -23 14 -28 34 -9 34 9 0 16 5 16
10 0 6 5 10 11 10 6 0 16 6 23 13 22 20 53 40 62 39 5 0 16 5 24 12 8 8 29 18
45 24 17 6 24 11 18 11 -28 2 -11 21 17 21 18 0 33 6 36 15 4 9 13 14 22 13 9
-2 18 4 20 13 3 14 -3 15 -43 6 -25 -6 -45 -16 -45 -23 0 -17 -43 -30 -48 -15
-4 12 -32 15 -32 4 0 -11 -51 -33 -61 -27 -5 3 -9 1 -9 -5 0 -6 -7 -8 -15 -5
-8 4 -15 2 -15 -3 0 -8 -42 -33 -55 -33 -3 0 -5 7 -5 15 0 8 -4 15 -10 15 -5
0 -7 -7 -4 -15 4 -9 0 -15 -10 -16 -29 -3 -34 -4 -42 -11 -4 -5 -22 -8 -39 -8
-27 0 -32 4 -31 23 1 17 7 22 28 22 16 1 33 6 40 13 7 7 23 13 38 13 25 2 25
2 1 6 l-24 5 24 13 c50 29 196 95 210 95 6 0 51 20 100 45 49 25 97 45 105 45
9 0 27 9 41 20 14 11 31 20 39 20 7 0 14 3 16 8 2 4 42 27 90 50 49 24 90 48
93 53 3 4 21 16 40 25 19 9 53 34 75 55 22 21 43 39 46 39 5 0 51 42 157 146
12 12 31 32 43 45 11 13 32 34 45 46 13 12 30 29 37 37 15 19 47 22 35 4z
m-3280 -1612 c10 -21 17 -48 15 -60 -3 -18 -10 -21 -55 -21 -40 0 -57 -6 -76
-23 -29 -27 -44 -28 -52 -2 -5 16 -15 20 -46 20 -41 0 -55 22 -23 34 13 5 14
9 4 21 -18 21 34 45 58 27 9 -7 25 -15 36 -19 14 -5 8 -11 -30 -29 -47 -22
-48 -23 -16 -21 17 0 32 5 32 9 0 4 11 8 25 8 22 0 25 4 25 35 0 23 5 35 14
35 8 0 17 7 20 16 11 28 50 12 69 -30z m-113 -842 c0 -8 -12 -20 -28 -27 -47
-21 -121 -81 -122 -99 0 -10 -5 -18 -11 -18 -7 0 -9 10 -6 25 6 33 -22 30 -34
-3 -8 -20 -5 -25 20 -33 23 -8 28 -16 27 -39 -1 -29 -19 -46 -36 -35 -5 3 -20
1 -34 -5 -29 -11 -34 -41 -11 -60 24 -20 17 -39 -17 -48 -32 -8 -33 -10 -30
-55 4 -55 -11 -87 -41 -87 -26 -1 -57 -22 -57 -39 0 -7 4 -10 9 -7 13 8 43
-30 39 -51 -5 -25 -64 -30 -89 -7 -18 16 -19 16 -30 -14 -7 -21 -18 -32 -30
-32 -10 0 -19 -7 -19 -15 0 -8 -5 -15 -10 -15 -6 0 -3 -11 6 -25 13 -21 14
-29 3 -60 -15 -39 -7 -60 26 -79 25 -14 45 -39 38 -49 -2 -4 0 -14 6 -21 9
-10 7 -15 -7 -18 -12 -3 -18 -16 -20 -39 -2 -30 -15 -48 -34 -49 -15 0 -8 51
7 56 8 4 13 10 10 14 -3 5 2 16 11 25 19 19 14 26 -29 40 -24 7 -33 17 -35 37
-2 15 -13 36 -25 46 -28 22 -79 89 -93 122 -31 69 -33 78 -20 95 13 18 24 18
100 -1 26 -6 27 -5 17 14 -9 16 -8 24 5 36 13 13 13 16 1 16 -23 0 -40 27 -33
54 4 17 13 24 31 24 25 0 42 -28 30 -48 -3 -5 1 -10 10 -10 10 0 15 7 13 18
-5 26 35 52 80 52 22 0 45 6 52 15 13 16 6 35 -14 35 -19 0 -59 37 -52 49 4 5
2 12 -4 16 -6 4 -8 11 -4 16 3 5 -5 18 -17 28 -27 22 -20 51 13 51 16 0 27 -9
37 -31 15 -35 21 -33 30 13 4 18 16 37 27 43 11 6 36 27 56 49 34 37 42 40
121 45 9 1 16 4 16 9 -5 29 3 62 15 62 7 0 25 6 39 13 36 19 97 19 97 1z
m3260 -22 c0 -14 -41 -43 -70 -49 -17 -3 -41 -15 -54 -28 -13 -12 -41 -33 -62
-46 -22 -13 -45 -29 -51 -35 -7 -7 -26 -18 -43 -25 -26 -12 -29 -18 -26 -47 4
-42 -22 -60 -47 -31 -20 23 -33 24 -41 4 -3 -8 -13 -15 -21 -15 -19 0 87 114
125 135 14 8 38 25 53 39 16 14 34 27 40 29 7 2 7 9 2 18 -5 8 -10 19 -11 25
-2 15 87 25 103 12 8 -6 21 -4 40 6 30 16 63 21 63 8z m-2292 -630 c9 -5 28
-14 41 -21 17 -9 26 -10 34 -2 14 14 84 14 93 0 10 -17 -7 -28 -51 -32 -27 -3
-41 -9 -43 -21 -2 -9 -8 -16 -13 -16 -5 0 -9 -7 -9 -15 0 -10 -10 -15 -32 -15
-37 0 -33 -9 5 -12 22 -2 26 -6 21 -23 -19 -59 -89 -43 -89 21 0 33 -3 38 -34
49 -32 11 -55 35 -33 35 5 0 13 11 16 24 8 32 56 46 94 28z"/>
<path d="M7856 5561 c-4 -5 -24 -12 -46 -16 -47 -8 -62 -29 -64 -91 -1 -23 -8
-50 -15 -58 -10 -12 -11 -16 -1 -16 7 0 10 -6 7 -14 -3 -8 1 -20 9 -26 8 -7
14 -22 14 -34 1 -43 23 16 24 63 1 43 4 47 44 69 82 46 120 132 57 132 -13 0
-26 -4 -29 -9z"/>
<path d="M4502 4826 c-9 -5 -24 -10 -32 -11 -8 -1 -31 -7 -52 -15 -31 -11 -35
-17 -31 -39 4 -27 55 -81 76 -81 7 -1 23 -10 36 -21 21 -17 22 -22 10 -30 -7
-5 -18 -9 -24 -10 -5 0 -1 -4 10 -8 13 -5 28 -3 43 7 20 13 22 13 22 -6 0 -11
8 -23 18 -25 12 -3 9 -5 -8 -6 -22 -1 -23 -3 -7 -12 9 -6 14 -15 11 -21 -5 -7
2 -9 20 -6 14 3 29 1 32 -3 7 -13 112 -11 119 1 11 19 -16 40 -51 40 -18 0
-36 5 -39 10 -3 6 -1 10 5 10 6 0 8 5 5 10 -3 6 -1 10 6 10 6 0 17 7 24 16 11
15 14 15 40 -2 26 -17 28 -17 22 -2 -3 10 -1 21 6 25 19 12 80 13 94 2 9 -8
25 -5 58 11 25 12 45 26 45 31 0 5 7 9 17 9 14 0 14 2 -3 21 -23 26 -95 59
-128 59 -14 0 -28 5 -31 10 -4 6 -18 10 -33 9 -40 -1 -113 10 -147 21 -35 12
-108 9 -133 -4z"/>
<path d="M6186 4672 c-3 -6 -24 -9 -46 -8 -22 1 -40 -1 -40 -6 0 -4 -9 -8 -20
-8 -12 0 -20 -7 -20 -16 0 -12 -3 -14 -13 -6 -20 17 -37 -1 -39 -42 -1 -25 -4
-34 -12 -26 -19 19 -27 10 -21 -24 6 -28 4 -34 -14 -39 -15 -3 -21 -13 -21
-31 0 -25 7 -30 43 -27 41 5 10 -52 -42 -76 l-26 -11 25 -2 25 -1 -23 -11
c-29 -14 -24 -30 12 -39 51 -14 100 -4 113 22 11 21 10 24 -7 27 -11 2 -20 8
-20 14 0 6 19 8 53 3 36 -4 48 -3 37 4 -12 9 -12 11 2 16 10 4 21 4 26 1 5 -3
8 5 7 18 -3 23 11 35 58 50 12 4 17 0 17 -14 0 -13 -9 -20 -27 -23 l-28 -4 30
-2 c32 -1 67 33 42 42 -9 3 -9 9 1 26 9 16 10 27 2 42 -9 16 -8 26 5 45 11 18
13 29 6 43 -6 10 -8 21 -5 23 3 3 -4 8 -16 11 -22 6 -25 0 -11 -23 6 -8 7 -18
5 -22 -8 -12 -34 18 -34 39 -1 17 -2 17 -15 -1 -11 -15 -15 -16 -15 -5 0 8 5
20 12 27 6 6 9 14 6 17 -3 4 -9 2 -12 -3z"/>
<path d="M3750 2121 c0 -5 -12 -16 -27 -23 -19 -9 -28 -21 -27 -37 1 -20 -3
-22 -30 -18 -17 3 -40 8 -51 11 -14 5 -31 -3 -60 -28 -22 -20 -45 -36 -51 -36
-5 0 -24 -15 -42 -33 -28 -28 -31 -39 -30 -80 l2 -47 19 40 c12 25 28 42 43
46 13 3 24 9 24 13 0 4 17 8 39 9 28 2 40 -2 45 -13 3 -9 2 -13 -4 -10 -18 11
-71 -35 -68 -59 2 -13 9 -20 20 -18 9 1 19 -2 23 -8 9 -15 45 -12 45 5 0 8 21
26 46 41 l46 27 -27 22 c-22 16 -26 26 -20 44 4 12 9 20 13 17 3 -3 10 4 16
16 6 13 20 24 31 26 54 8 65 13 65 32 0 10 -5 22 -10 25 -6 4 -8 9 -6 13 2 4
-2 13 -10 20 -8 7 -14 8 -14 3z"/>
</g>
</svg>
